<svg version="1" xmlns="http://www.w3.org/2000/svg" width="682.667" height="682.667" viewBox="0 0 512.000000 512.000000"><path d="M187 184c-43.7 9.1-80.6 39.5-89.5 73.5-5.6 21.5-1.4 39.7 12.4 53.4 10.8 10.8 24.6 16.8 44.1 19.2 28.6 3.5 68.8-6.2 83.2-20.1 3.9-3.8 4.8-5.3 4.8-8.1 0-1.9-.5-4-1.2-4.7-1.8-1.8-10.5-1.4-18.3.8-16.3 4.7-32.9 6.2-42.3 3.8-21.4-5.3-27.1-29.3-14.4-59.8 6.7-15.7 22.4-34.8 33.3-40.3 5.6-2.8 14.7-3.7 17.8-1.8 2.4 1.5.7 7.1-8.3 26.4-10 21.4-10.4 23.3-4.8 28.6 4.4 4.3 9.7 6.1 17.3 6.1 19.4-.1 34.9-13.1 39-32.8 5.7-27.4-15.9-46.4-52.5-46.1-7.4.1-15.4.8-20.6 1.9zM327.5 185.6c-21.2 4.6-30.3 19.2-43.5 69.9-9.8 38-13 45.4-23.6 53.7-8.9 6.9-10.5 11.3-6 16.5l2.4 2.8 62.4.2c65.8.3 68.9.2 75.9-4.3 9.1-5.7 15.5-19.1 20.4-43 3.4-16.3 1.2-21.9-8.5-21.9h-4.9l-13.8 13.7c-7.6 7.6-16.3 15.6-19.3 17.9-10.9 8.2-27.6 15.2-41.1 17.2l-2.7.4 3.4-4.7c5.6-7.8 8.8-15.5 17.9-42.5 12.8-38.6 19.3-51.2 30-59.1 6.8-5 8.9-8.1 7.9-12-1.3-5.1-4.9-5.9-28.4-6.1-16-.2-23.3.2-28.5 1.3z"/></svg>